<?xml version="1.0" encoding="UTF-8"?>
<svg id="Layer_1" data-name="Layer 1" xmlns="http://www.w3.org/2000/svg" viewBox="0 0 1206.56 201.59">
  <defs>
    <style>
      .cls-1 {
        fill: #f60;
        stroke-width: 0px;
      }
    </style>
  </defs>
  <path class="cls-1" d="M659.02,93.73c-.77-9.63-4.3-18.12-10.49-25.25-6.07-6.98-14.66-12.39-25.52-16.06-10.58-3.57-27.11-5.39-41.99-5.39-13.95,0-26.21,1.87-36.42,5.55-10.5,3.78-18.72,9.31-24.44,16.43-5.86,7.29-8.84,16.04-8.84,26v.14c0,8.18,2.01,14.03,5.99,20.08,3.93,5.98,9.78,10.88,17.39,14.55,7.31,3.54,16.56,6.05,27.48,7.46l38.02,4.08c11.71,1.46,17.04,3.75,19.45,5.41,2.9,2,4.25,6.16,4.25,10.16v.14c0,3.42-1.1,6.15-3.46,8.58-2.57,2.65-6.61,4.74-12.01,6.21-5.78,1.57-12.98,2.37-21.42,2.37-14.15,0-21.49-1.77-28.96-5.25-6.87-3.2-10.86-7.65-12.21-13.59l-.77-3.23h-38.44l.57,4.76c1.24,10.06,5.26,16.31,11.94,23.44,6.55,6.99,15.65,12.36,27.06,15.96,9.74,3.08,21.36,4.83,34.61,5.21,1.86.05,3.76.08,5.68.08,1.81,0,7.23-.03,8.98-.09,12.5-.41,23.51-2.26,32.8-5.52,10.88-3.82,19.44-9.46,25.42-16.74,6.14-7.48,9.25-13.9,9.25-23.97v-.14c0-12.63-4.19-21.02-12.47-28.02-7.88-6.67-20.71-11.2-38.12-13.48l-40.73-4.22c-6.11-.68-11.07-1.76-14.75-3.2-3.29-1.29-5.65-2.86-7.03-4.67-1.3-1.7-1.9-5.19-1.9-7.61v-.14c0-3.36,1.03-7.55,3.24-9.89,2.41-2.56,6.17-4.59,11.19-6.05,5.37-1.56,10.92-2.35,18.91-2.35,12.47,0,22.43,1.84,29.61,5.47,6.64,3.35,10.13,9.08,10.97,14.72l.52,3.27h37.02l-.38-5.23Z"/>
  <path class="cls-1" d="M830,93.73c-.77-9.63-4.3-18.12-10.49-25.25-6.07-6.98-14.66-12.39-25.52-16.06-10.58-3.57-27.11-5.39-41.99-5.39-13.95,0-26.21,1.87-36.42,5.55-10.5,3.78-18.72,9.31-24.44,16.43-5.86,7.29-8.84,16.04-8.84,26v.14c0,8.18,2.01,14.03,5.99,20.08,3.93,5.98,9.78,10.88,17.39,14.55,7.31,3.54,16.56,6.05,27.48,7.46l38.02,4.08c11.71,1.46,17.04,3.75,19.45,5.41,2.9,2,4.25,6.16,4.25,10.16v.14c0,3.42-1.1,6.15-3.46,8.58-2.57,2.65-6.61,4.74-12.01,6.21-5.78,1.57-12.98,2.37-21.42,2.37-14.15,0-21.49-1.77-28.96-5.25-6.87-3.2-10.86-7.65-12.21-13.59l-.77-3.23h-38.44l.57,4.76c1.24,10.06,5.26,16.31,11.94,23.44,6.55,6.99,15.65,12.36,27.06,15.96,9.74,3.08,21.36,4.83,34.61,5.21,1.86.05,3.76.08,5.68.08,1.81,0,7.23-.03,8.98-.09,12.5-.41,23.51-2.26,32.8-5.52,10.88-3.82,19.44-9.46,25.42-16.74,6.14-7.48,9.25-13.9,9.25-23.97v-.14c0-12.63-4.19-21.02-12.47-28.02-7.88-6.67-20.71-11.2-38.12-13.48l-40.73-4.22c-6.11-.68-11.07-1.76-14.75-3.2-3.29-1.29-5.65-2.86-7.03-4.67-1.3-1.7-1.9-5.19-1.9-7.61v-.14c0-3.36,1.03-7.55,3.24-9.89,2.41-2.56,6.17-4.59,11.19-6.05,5.37-1.56,10.92-2.35,18.91-2.35,12.47,0,22.43,1.84,29.61,5.47,6.64,3.35,10.13,9.08,10.97,14.72l.52,3.27h37.02l-.38-5.23Z"/>
  <path class="cls-1" d="M172.7,124.96v-.03s0-1.88,0-1.88v-2.46h-.09c-.86-20.55-7.88-38.15-20.39-51.04-14.59-15.02-37.52-22.96-64.02-22.96-23.01,0-42.64,9.6-52.39,20.38V0H0v197.69h35.79v-14.13c12.92,11.73,32.19,17.67,53.6,17.67,23.04,0,48.14-5.59,62.82-20.84,12.49-12.97,19.51-30.45,20.38-50.68h.08l.02-2.48v-1.99s0-.13,0-.13v-.11s0-.03,0-.03ZM85.76,173.26c-10.51,0-18.4-1.94-26.62-5.94-15.65-7.6-23.34-24.24-23.34-42.38,0-21.9,12.48-42.89,33.02-47.62,5.6-1.29,10.5-1.94,16.94-1.94,15.07,0,27.76,4.53,36.7,13.1,8.9,8.53,13.63,22.29,13.67,36.67-.08,28.77-20.32,48.11-50.37,48.11Z"/>
  <path class="cls-1" d="M1022.64,125.08v-.04s0-1.88,0-1.88v-2.46h-.12c-1.03-19.5-8.47-37.31-21.07-50.36-15.18-15.72-39.53-24.02-65.82-24.02s-49.36,8.27-64.49,23.93c-12.67,13.11-20.15,30.95-21.19,50.45h-.1l-.03,2.48v2.02s0,.12,0,.12v.09s0,.03,0,.03v.03s0,1.88,0,1.88v2.46h.13c1.06,19.21,8.55,34.36,21.21,47.38,13.03,13.38,32.28,21.41,53.8,23.54.24.02.47.06.71.08,1.3.12,2.61.21,3.93.29.34.02.67.05,1.01.07,1.66.08,3.33.13,5.02.15,0,0,0,0,.01,0,0,0,0,0,.01,0,.19,0,.37-.01.56-.02,1.49-.02,4.17-.06,5.63-.13.59-.03,1.15-.08,1.73-.12,1.07-.07,2.13-.13,3.18-.23.44-.04.86-.1,1.29-.14,1.21-.13,2.41-.26,3.59-.42.12-.02.24-.04.36-.06,19.56-2.75,37.21-10.57,49.32-23.01,13.19-13.56,20.76-29.64,21.31-49.78l.04-1.87v-.04s0-.04,0-.04v-.24s0-.09,0-.09v-.04ZM986.98,130.86v.03s-.01.07-.01.07c-2.56,24.93-23.19,41.96-51.34,42.39-28.19-.43-47.63-17.48-50.19-42.43-.71-5.71-.46-15.1,1.74-22.35v-.05s.03-.05.03-.05l.12-.41c5.52-20.24,22.34-33.3,48.27-33.3s44.24,13.25,49.62,33.79v.05s.03.05.03.05c2.19,7.19,2.43,16.56,1.73,22.22Z"/>
  <path class="cls-1" d="M1190.16,64.35c-10.88-11.16-29.8-16.81-49.05-16.81-12.98,0-26.22,1.11-43.98,10.31-5.89,3.05-12.15,8.21-16.37,12.73v-20.27h-36.29v147.57h36.29v-76.28c0-8.33,1.77-16.74,5.26-22.82,3.47-6.04,10.58-12.19,16.9-15.46,11.69-6.05,22.72-7.5,31.35-7.5,12.04,0,19.92,3.16,25.83,9.4,5.94,6.28,10.17,15.81,10.17,28.32v84.33h36.29v-87.21c0-19.57-5.52-35.15-16.4-46.31Z"/>
  <path class="cls-1" d="M480.03,169.45c-10.51,2.74-19.43,2.9-21.6,2.9h-1.27c-18.28,0-18.2-7.28-18.2-13.63v-78.44h47.82v-29.85h-47.82V0h-35.79v50.44h-38.38v29.85h38.38v81.45c0,13.52,4.74,21.59,14.09,28.86,9.15,7.12,22.34,10.73,39.22,10.73.03,0,.08,0,.15,0,2.17-.03,27.25-.5,39.91-6.55l2.95-1.5-16.18-24.66-3.26.85Z"/>
  <path class="cls-1" d="M230.04,129.98h130.45v-2.6c-.02-.93-.03-1.8-.05-2.29-.55-18.24-4.08-38.57-21.21-55.59-14.84-14.75-40.54-23.2-64.17-23.2-15.17,0-28.74,2.74-40.32,8.16-4.47,2.09-8.73,4.64-12.66,7.59-1.52,1.14-2.88,2.24-4.14,3.34-3.2,2.81-6.18,5.99-8.87,9.44-.66.85-1.3,1.71-1.9,2.57-2.55,3.61-4.78,7.46-6.61,11.43-4.4,9.5-6.99,20.47-7.56,31.85h-.09l-.03,2.48v2.02s0,.12,0,.12v.09s0,.03,0,.03v.03s0,1.88,0,1.88v2.46h.12c.01.21.03.41.04.62l.07,1.08c.03.5.06,1.01.1,1.51.04.49.1.99.15,1.48l.12,1.1c.04.37.08.75.13,1.13.08.59.17,1.18.26,1.77l.15.98c.04.3.09.62.14.93.13.74.27,1.47.42,2.2l.14.71c.04.23.09.48.14.73.2.93.43,1.86.64,2.67l.08.32c.05.2.09.41.15.61.25.96.54,1.92.81,2.82l.07.25c.04.14.09.31.14.47.34,1.09.7,2.14.98,2.92l.17.51c.35.97.74,1.96,1.2,3.08l.13.34c.43,1.04.88,2.05,1.43,3.22l.05.12c.51,1.06,1.04,2.12,1.61,3.19l.04.08c13.57,25.28,39.77,36.71,73.8,36.71s63.81-10.38,80.58-34.69l1.73-2.51-26.34-16.6-1.73,1.86c-13.5,14.48-24.57,23.97-54.24,23.97-.15,0-.3,0-.45,0h-.1s-.49-.01-.49-.01c-12.22-.18-19.41-3.55-27.69-9.74-.61-.46-1.15-.88-1.7-1.34-.57-.47-1.08-.92-1.61-1.4-.52-.47-.98-.92-1.42-1.37l-.08-.08c-.52-.53-.95-.98-1.36-1.44l-.1-.11c-.5-.56-.88-1.01-1.28-1.5l-.09-.11c-.39-.49-.76-.96-1.12-1.44l-.18-.25c-.35-.48-.68-.95-1.01-1.44l-.2-.32c-.32-.48-.62-.95-.91-1.43l-.22-.39c-.28-.48-.55-.94-.81-1.42l-.25-.48c-.25-.47-.48-.92-.71-1.38l-.3-.64-.05-.11c-.18-.38-.36-.77-.53-1.16l-.34-.83c-.16-.39-.31-.76-.46-1.14-.05-.14-.09-.26-.14-.39l-.22-.63h0s-.02-.06-.02-.06c-.11-.32-.23-.63-.33-.95-.05-.14-.09-.28-.13-.41l-.02-.08-.22-.72-.03-.1c-.08-.25-.15-.5-.23-.75-.05-.19-.1-.39-.15-.59l-.19-.76c-.07-.27-.14-.52-.2-.78-.05-.22-.1-.44-.14-.67l-.18-.84c-.05-.25-.1-.46-.14-.66-.06-.31-.11-.62-.16-.93,0,0-.21-1.57-.21-3.31h.01v-1.2ZM234.55,98.59c1.05-2.24,2.3-4.37,3.7-6.35.37-.52.78-1.07,1.22-1.63.72-.91,1.5-1.8,2.31-2.65.8-.84,1.66-1.65,2.54-2.41.56-.48,1.12-.94,1.67-1.36.24-.19.49-.37.74-.55,2.01-1.47,4.22-2.77,6.58-3.87.66-.31,1.33-.61,2.02-.89,6.62-2.71,10.85-4.09,19.74-4.09,17.08,0,31.23,6.76,39.84,19.05,2.3,3.28,4.37,8.81,5.82,12.85.15.43.31.85.44,1.24h-89.3c.06-.36.15-.79.25-1.24.56-2.55,1.6-6.33,2.43-8.1Z"/>
</svg>