<?xml version="1.0" encoding="UTF-8" standalone="no"?>
<!-- Created with Inkscape (http://www.inkscape.org/) -->

<svg
   width="132.2919mm"
   height="185.85318mm"
   viewBox="0 0 132.29191 185.85318"
   version="1.1"
   id="svg1"
   inkscape:version="1.4 (86a8ad7, 2024-10-11)"
   sodipodi:docname="Puig logo-.svg"
   xmlns:inkscape="http://www.inkscape.org/namespaces/inkscape"
   xmlns:sodipodi="http://sodipodi.sourceforge.net/DTD/sodipodi-0.dtd"
   xmlns="http://www.w3.org/2000/svg"
   xmlns:svg="http://www.w3.org/2000/svg">
  <sodipodi:namedview
     id="namedview1"
     pagecolor="#ffffff"
     bordercolor="#000000"
     borderopacity="0.25"
     inkscape:showpageshadow="2"
     inkscape:pageopacity="0.0"
     inkscape:pagecheckerboard="0"
     inkscape:deskcolor="#d1d1d1"
     inkscape:document-units="mm"
     inkscape:zoom="0.49323376"
     inkscape:cx="-277.75876"
     inkscape:cy="240.25119"
     inkscape:window-width="1920"
     inkscape:window-height="1001"
     inkscape:window-x="-9"
     inkscape:window-y="-9"
     inkscape:window-maximized="1"
     inkscape:current-layer="layer1" />
  <defs
     id="defs1" />
  <g
     inkscape:label="Layer 1"
     inkscape:groupmode="layer"
     id="layer1"
     transform="translate(-26.505202,-44.483812)">
    <path
       id="path1"
       d="m 98.488587,112.94643 c 0,3.15009 -2.554408,5.70582 -5.704588,5.70582 -3.151927,0 -5.706348,-2.55573 -5.706348,-5.70582 0,-3.15022 2.554421,-5.70633 5.706348,-5.70633 3.15018,0 5.704588,2.55611 5.704588,5.70633 M 92.370933,84.418654 c 0,8.088098 -3.090731,15.45719 -8.15322,20.985956 -1.770701,2.01292 -2.84465,4.65254 -2.84465,7.54182 0,6.30204 5.108829,11.41041 11.410936,11.41041 6.30036,0 11.410491,-5.10837 11.410491,-11.41041 0,-2.88928 -1.07572,-5.5289 -2.84596,-7.54182 -5.062493,-5.528766 -8.153225,-12.897858 -8.153225,-20.985956 0,-8.088097 3.088985,-15.452357 8.151475,-20.98435 1.772,-2.011059 2.84771,-4.649435 2.84771,-7.541688 0,-6.30031 -5.110131,-11.408804 -11.410491,-11.408804 -6.302107,0 -11.410936,5.108494 -11.410936,11.408804 0,2.892253 1.073986,5.530629 2.848144,7.541688 5.060742,5.531993 8.149726,12.896253 8.149726,20.98435"
       style="fill:#cec8bd;fill-opacity:1;fill-rule:nonzero;stroke:none;stroke-width:0.4371" />
    <path
       id="path2"
       d="m 145.23075,107.19067 c -4.1813,0 -7.0124,4.10959 -7.07359,11.07092 -0.13852,15.17519 -4.93967,26.6307 -14.27088,34.04564 -9.74427,7.74154 -22.24751,9.42872 -31.104028,9.45932 -18.117361,0 -31.174154,-6.13824 -35.601494,-9.45932 -8.368055,-6.27454 -20.712731,-15.81552 -20.842507,-34.0392 0.0285,-2.91938 0.582217,-7.87957 3.909999,-7.87957 3.338004,0 3.674386,4.5948 3.676096,7.88837 0,13.76344 5.85985,24.20445 17.41398,31.03233 11.035288,6.52074 24.714764,8.13927 31.443926,8.13927 15.902998,0 25.491668,-6.23873 30.665178,-11.45861 6.03417,-6.09364 9.86229,-14.43611 9.63675,-22.34851 -0.24743,-8.68556 0.89829,-14.51653 5.37502,-20.45145 5.00435,-6.63336 7.30262,-13.254578 3.41331,-19.375725 -1.97395,-3.110817 -4.36445,-4.710644 -8.36478,-4.972078 -3.99204,-0.258956 -7.95173,0.945375 -10.62372,3.681263 -5.99307,6.129449 -3.9116,15.300329 -1.90051,24.17211 0.87946,3.88099 1.82183,7.3966 2.07142,11.70072 0.24743,4.24118 -0.77885,10.2207 -3.34819,14.75392 -2.96616,5.23512 -8.77784,13.4325 -26.924478,13.4325 -17.357679,0 -26.5846,-7.90361 -31.174154,-13.4325 -4.692008,-5.64995 -5.415932,-15.0783 -5.723297,-18.09507 -0.47975,-4.69057 -0.858767,-8.39191 -5.096636,-13.84039 -5.974274,-7.681575 -5.050557,-12.773342 -3.227012,-15.693225 1.169638,-1.869439 3.182605,-3.075008 5.668619,-3.389225 2.998239,-0.379141 6.189418,0.649249 8.328803,2.684221 5.631077,5.35444 2.581641,15.563369 0.828039,22.246169 -1.751806,6.67933 0.05328,13.92564 1.253248,17.17324 4.085878,11.06745 14.693988,17.60863 29.14234,17.94825 9.996908,0 21.906138,-4.77409 25.080348,-18.2336 1.1352,-4.80989 1.46822,-10.0346 -1.10149,-21.28283 -1.83188,-8.019949 -3.5204,-12.486257 -1.48352,-17.672066 1.78424,-4.541393 4.00734,-7.502288 7.72749,-8.830645 4.96721,-1.772423 13.58289,-4.043181 13.58289,-11.130767 0,-7.601162 -7.12866,-9.609247 -10.89865,-9.609247 -7.93948,0 -13.10776,3.64372 -16.72432,6.817974 -5.11014,4.486752 -10.266609,13.090655 -10.266609,22.20293 0,8.458689 3.042659,12.874321 5.726889,16.772291 2.45519,3.56678 4.44924,6.40971 4.53317,11.72835 0.16565,10.57915 -7.47354,16.88776 -16.176198,16.98527 -8.632735,0.0991 -16.206799,-6.63001 -16.206799,-16.98527 0,-4.8768 2.06093,-7.94475 4.457982,-11.57657 2.654942,-4.02088 5.663502,-8.578133 5.663502,-16.928903 0,-9.768338 -5.330428,-17.939946 -10.317745,-22.331417 -3.758181,-3.305838 -8.646575,-6.684655 -16.418734,-6.684655 -3.769989,0 -10.898488,2.008085 -10.898488,9.609247 0,7.383093 6.416506,9.107442 9.865489,10.032745 5.714723,1.698949 8.588304,4.296314 9.74938,6.022397 2.325586,3.10078 3.65393,7.142227 3.206346,13.269942 -0.266143,3.621294 -2.852914,10.333454 -2.852914,15.020064 0,1.01104 -0.387567,1.93275 -1.019345,2.62425 -0.221909,0.25276 -0.355104,0.58234 -0.355104,0.9429 0,0.78802 0.638593,1.42537 1.425732,1.42537 0.787028,0 1.425695,-0.63686 1.425695,-1.42537 0,-0.36056 -0.135054,-0.69014 -0.355104,-0.9429 -0.633389,-0.69138 -1.019345,-1.61333 -1.019345,-2.62425 0,-2.1222 4.675046,-11.499255 5.407631,-15.020064 1.056888,-5.09313 -0.268372,-11.106731 -3.128323,-15.117574 -1.329968,-2.076231 -5.050433,-5.322101 -11.649634,-7.283847 -4.092655,-1.101492 -7.481893,-2.38004 -7.481893,-6.923663 0,-6.209862 6.891152,-6.390884 7.679988,-6.390884 6.682822,0 10.816428,2.827576 14.289188,5.88561 4.25866,3.744205 9.228928,11.209445 9.228928,19.912099 0,7.382597 -2.492779,11.157778 -5.132432,15.153381 -2.458681,3.725372 -4.960207,7.235772 -4.960207,13.352092 0,12.30523 8.676869,20.20364 19.396318,20.20364 9.742516,0 19.460996,-7.36736 19.460996,-20.20364 0,-6.46956 -3.45222,-11.27586 -5.16477,-13.553681 -2.81055,-3.739373 -5.15822,-7.490517 -5.15822,-14.94696 0,-8.062326 4.75172,-15.906088 9.16905,-19.783612 3.38927,-2.976259 7.77557,-6.018929 14.60001,-6.018929 0.78727,0 7.67985,0.180898 7.67985,6.390884 0,4.280454 -5.26881,6.098845 -9.56463,7.268483 -8.47231,2.853471 -10.67135,9.090468 -11.55254,11.593667 -2.05088,5.649575 -0.72211,11.782866 1.34364,19.657228 1.85942,7.08586 2.47923,14.07952 1.1373,19.64076 -0.8947,3.7017 -5.11407,15.76793 -21.913131,15.76967 -13.212216,-0.311 -22.50234,-5.93852 -26.159466,-15.84315 -1.073986,-2.90935 -2.665301,-9.60268 -1.135441,-15.3344 1.529847,-5.73346 5.298299,-18.606045 -1.744992,-25.304082 -2.866716,-2.72486 -6.964538,-4.048013 -10.956523,-3.544474 -3.464322,0.437375 -6.30207,2.170149 -7.994118,4.876301 -3.397799,5.436587 -2.216229,12.136483 3.418243,19.375725 3.669244,4.71944 3.973152,7.69384 4.434168,12.19112 0.307277,3.01207 1.222544,12.35158 4.942985,17.76909 4.9652,7.23961 15.320662,16.63376 35.157576,16.6526 15.552879,0.0124 25.039269,-5.2469 30.762649,-17.00932 2.04039,-4.19 3.11084,-9.80067 2.72314,-14.63633 -0.36192,-4.50732 -1.23791,-8.17805 -2.14616,-12.17366 -1.90358,-8.398842 -3.70356,-16.333053 1.06568,-21.209849 1.98881,-2.033362 4.97027,-3.054441 7.97533,-2.72833 2.59507,0.280019 4.77401,1.546921 5.97909,3.476204 1.82358,2.919883 2.96747,7.854294 -3.22667,15.693225 -6.13514,7.76335 -6.22692,14.96889 -6.04947,22.46436 0,7.04645 -3.25595,14.54056 -8.70615,20.04369 -4.73817,4.78225 -13.59949,10.38276 -28.377401,10.38276 -6.664039,0 -19.40156,-1.4188 -29.80481,-7.56746 C 52.471787,140.32984 47.14463,130.8212 47.14463,118.27683 c -0.06319,-6.96121 -2.718231,-11.10847 -6.950934,-11.10847 -4.179771,0 -7.010692,4.15767 -7.073845,11.11851 0.140009,19.80455 13.522776,30.07989 22.022317,36.54066 5.173517,3.93216 18.655159,10.13509 37.640171,10.13199 13.527811,0 24.824211,-3.54968 33.105071,-10.13199 10.13023,-8.04696 15.34134,-20.34217 15.4882,-36.53719 0.0285,-2.91976 0.58049,-7.87957 3.90811,-7.87957 3.33814,0 3.67296,4.57075 3.67602,7.86433 -0.005,24.58681 -16.15216,40.09207 -29.9772,45.899 -8.58814,3.60606 -16.6216,4.03092 -26.229058,4.21541 -0.45943,0 -0.903496,0.0619 -1.331839,0.16107 -0.0731,0.0124 -0.14509,0.0372 -0.215466,0.0619 -0.09169,0.0248 -0.182756,0.0496 -0.269736,0.0867 -0.824322,0.26639 -1.502303,0.6951 -2.046928,1.21177 -1.128627,1.04573 -1.840632,2.53392 -1.840632,4.19186 0,3.15195 2.552661,5.70632 5.704588,5.70632 3.15018,0 5.704155,-2.55437 5.704155,-5.70632 0,-0.94537 -0.233804,-1.83896 -0.643425,-2.62264 7.847261,-0.30728 14.867961,-1.15972 22.416671,-4.32816 14.73684,-6.18929 31.9424,-22.70213 31.9507,-48.86646 -0.0644,-6.96121 -2.71963,-11.08617 -6.95076,-11.08617"
       style="fill:#cec8bd;fill-opacity:1;fill-rule:nonzero;stroke:none;stroke-width:0.4371" />
    <path
       id="path3"
       d="m 158.79615,211.96993 c 0,-0.19329 -0.15513,-0.34693 -0.34842,-0.34693 h -9.04923 -9.39766 v 0.44605 c 0,0.14992 0.0942,0.28002 0.2291,0.3271 l 6.43673,2.34262 v 10.86612 c 0,0.64429 -0.43713,1.1845 -1.03112,1.34545 -1.43587,0.4064 -2.94693,0.63562 -4.51088,0.63562 -3.18951,0 -6.17096,-0.89333 -8.70965,-2.44162 -0.80598,-0.48817 -1.52635,-1.08786 -2.1514,-1.78593 -2.98277,-3.33124 -4.7963,-7.73126 -4.7963,-12.55477 0,-0.31967 0.0211,-1.13495 0.0359,-1.46156 0.13332,-4.38292 1.9499,-8.34073 4.8234,-11.25008 1.58448,-1.6085 3.59601,-2.79338 5.85495,-3.36544 h -0.005 c 0.92407,-0.26143 1.65136,-0.42127 2.90103,-0.42127 2.57671,0 5.27754,0.6381 7.55002,1.79275 l 2.00148,5.49618 c 0.0545,0.12638 0.17396,0.21311 0.31905,0.21311 h 0.45064 v -9.39774 c -2.6261,-0.48198 -5.33569,-0.73226 -8.09991,-0.73226 -0.7444,0 -1.47871,0.0248 -2.2126,0.0496 -6.88782,0.32958 -12.95608,3.79389 -16.82529,8.98093 -1.67496,2.32553 -2.78301,5.09499 -3.08155,8.09839 -0.052,0.57242 -0.0768,1.14733 -0.0768,1.73128 0,10.49205 8.27255,19.04974 18.64843,19.51066 1.04165,0.0743 2.08977,0.1239 3.15018,0.1239 2.83415,0 5.57128,-0.062 8.2896,-0.77315 1.01934,-0.27011 2.00105,-0.60217 2.93994,-1.00237 v -11.70778 c 0,-1.17459 0.72557,-2.1787 1.75189,-2.59018 l 0.10284,-0.0372 c 0.0409,-0.0124 0.0843,-0.0248 0.12675,-0.0496 v -0.002 l 4.68484,-1.70402 v -0.34445"
       style="fill:#231f20;fill-opacity:1;fill-rule:nonzero;stroke:none;stroke-width:0.4371" />
    <path
       id="path4"
       d="m 117.91899,228.69749 -4.46148,-1.62213 c -1.14262,-0.34693 -1.96869,-1.40691 -1.97569,-2.66006 v -27.87543 c 0,-0.62942 0.41829,-1.16096 0.99047,-1.3369 l 5.67355,-2.06595 v -0.34321 c 0,-0.19081 -0.15339,-0.34817 -0.34655,-0.34817 h -9.04754 -9.397643 v 0.44853 c 0,0.14992 0.09417,0.2763 0.227237,0.32834 l 6.436736,2.34089 v 30.79333 l -6.664023,2.42452 v 0.34321 c 0,0.19328 0.155622,0.3494 0.348414,0.3494 h 9.049279 9.39416 l 0.003,-0.44853 c 0,-0.14868 -0.0954,-0.27878 -0.23033,-0.32834"
       style="fill:#231f20;fill-opacity:1;fill-rule:nonzero;stroke:none;stroke-width:0.4371" />
    <path
       id="path5"
       d="m 47.05573,209.59831 0.0017,0.005 c -1.521285,0.60589 -3.1775,0.93918 -4.91222,0.93918 -1.208915,0 -2.400645,-0.16107 -3.510488,-0.46339 v -14.64786 c 1.25155,-0.48818 2.637992,-0.75457 4.063675,-0.75457 1.545198,0 3.018707,0.31472 4.359033,0.88219 2.77799,1.11636 4.739823,3.84679 4.739823,7.026 0,3.1776 -1.961833,5.89751 -4.741533,7.01251 m 3.783668,-16.22403 c -2.125743,-0.60588 -4.35907,-0.92926 -6.679451,-0.92926 l -8.257089,0.005 h -9.397646 v 0.44728 c 0,0.1524 0.0954,0.28002 0.228848,0.32835 l 6.436975,2.34249 v 30.63114 l -6.665773,2.42626 v 0.34321 c 0,0.19329 0.157108,0.3494 0.348289,0.3494 h 9.049332 9.395949 l 0.0017,-0.44728 c 0,-0.1524 -0.0954,-0.28002 -0.228848,-0.32959 l -4.690298,-1.70576 c -1.024425,-0.41259 -1.746701,-1.41719 -1.746701,-2.58671 v -11.67532 c 1.319832,0.22055 2.673837,0.33578 4.05686,0.33578 2.443305,0 4.830259,-0.37047 7.055062,-1.03954 1.912309,-0.59473 3.623115,-1.64766 5.00444,-3.03065 1.678382,-1.67838 2.725059,-4.00899 2.725059,-6.57017 0,-4.20711 -2.798495,-7.76026 -6.636755,-8.8957"
       style="fill:#231f20;fill-opacity:1;fill-rule:nonzero;stroke:none;stroke-width:0.4371" />
    <path
       id="path6"
       d="M 97.853042,192.44725 H 81.44344 l -0.0035,0.44729 c 0,0.14992 0.0954,0.27878 0.230335,0.32587 l 6.437173,2.34262 v 22.34157 c 0,5.12225 -4.152451,9.27645 -9.276581,9.27645 -5.125865,0 -9.225212,-3.24748 -9.225212,-10.10796 v -20.53173 c 0,-0.62818 0.41656,-1.16096 0.990228,-1.33517 l 5.446698,-1.98578 c 0.135053,-0.0496 0.228599,-0.17595 0.228599,-0.32587 l -0.0013,-0.44729 h -9.396122 -9.047622 c -0.192916,0 -0.350025,0.15488 -0.350025,0.34693 v 0.34321 l 6.665773,2.42626 v 21.51006 c 0,7.31805 5.933287,13.25136 13.253091,13.25136 0.09169,0 0.612821,0.0124 0.70327,0.0119 7.319668,0 13.437321,-5.93332 13.437321,-13.25136 v -19.58748 c 0.0087,-1.16468 0.956403,-2.2435 1.977445,-2.65163 l 4.688328,-1.70911 v -0.34321 c 0,-0.19081 -0.155125,-0.34693 -0.348413,-0.34693"
       style="fill:#231f20;fill-opacity:1;fill-rule:nonzero;stroke:none;stroke-width:0.4371" />
  </g>
</svg>
